<?xml version="1.0" encoding="UTF-8"?>
<svg id="a" xmlns="http://www.w3.org/2000/svg" viewBox="0 0 285.9 66.12">
    <defs>
        <style>.b{fill:#ee7203;}.c{fill:#575756;}</style>
    </defs>
    <g>
        <path class="b" d="M118.85,37.56c-1.23-2.06-2.6-4.27-4.12-6.64-1.52-2.37-3.09-4.75-4.72-7.15-1.63-2.4-3.28-4.73-4.96-6.99-1.68-2.26-3.28-4.29-4.8-6.1v26.88h-6.72V0h5.58c1.44,1.52,3,3.32,4.66,5.39,1.66,2.08,3.33,4.24,5.01,6.48,1.68,2.24,3.31,4.49,4.88,6.75,1.57,2.26,2.97,4.36,4.2,6.31V0h6.78V37.56h-5.8Z"/>
        <path class="b" d="M158.96,23.36c0,2.24-.33,4.28-.98,6.12s-1.57,3.41-2.76,4.72-2.63,2.31-4.31,3.04c-1.68,.72-3.53,1.08-5.55,1.08s-3.87-.36-5.53-1.08c-1.66-.72-3.09-1.73-4.28-3.04s-2.12-2.87-2.79-4.72c-.67-1.84-1-3.88-1-6.12s.33-4.27,1-6.1c.67-1.82,1.61-3.39,2.82-4.69,1.21-1.3,2.65-2.3,4.31-3.01s3.49-1.06,5.47-1.06,3.82,.35,5.5,1.06c1.68,.7,3.12,1.71,4.31,3.01s2.12,2.86,2.79,4.69c.67,1.83,1,3.86,1,6.1Zm-6.72,0c0-2.82-.61-5.05-1.82-6.69-1.21-1.64-2.9-2.47-5.07-2.47s-3.86,.82-5.07,2.47c-1.21,1.64-1.82,3.88-1.82,6.69s.6,5.11,1.82,6.77c1.21,1.66,2.9,2.49,5.07,2.49s3.86-.83,5.07-2.49c1.21-1.66,1.82-3.92,1.82-6.77Z"/>
        <path class="b" d="M181.89,15.12c-.54-.18-1.29-.37-2.25-.57-.96-.2-2.07-.3-3.33-.3-.72,0-1.49,.07-2.3,.22-.81,.14-1.38,.27-1.71,.38v22.71h-6.56V10.57c1.26-.47,2.84-.91,4.74-1.33,1.9-.42,4-.62,6.31-.62,.43,0,.94,.03,1.52,.08,.58,.05,1.16,.13,1.73,.22,.58,.09,1.14,.2,1.68,.33,.54,.13,.98,.24,1.3,.35l-1.14,5.53Z"/>
        <path class="b" d="M203.73,22.66c0-2.96-.37-5.1-1.11-6.42-.74-1.32-2.12-1.98-4.15-1.98-.72,0-1.52,.05-2.38,.16s-1.52,.2-1.95,.27v22.87h-6.56V10.14c1.26-.36,2.92-.7,4.96-1.03,2.04-.33,4.2-.49,6.48-.49,1.95,0,3.55,.25,4.8,.76,1.25,.51,2.29,1.17,3.12,2.01,.4-.29,.9-.6,1.52-.92s1.3-.62,2.06-.89,1.56-.5,2.41-.68c.85-.18,1.71-.27,2.57-.27,2.2,0,4.02,.32,5.45,.95,1.43,.63,2.55,1.52,3.36,2.66,.81,1.14,1.37,2.51,1.68,4.12,.31,1.61,.46,3.37,.46,5.28v15.93h-6.56v-14.9c0-2.96-.36-5.1-1.08-6.42-.72-1.32-2.11-1.98-4.17-1.98-1.05,0-2.04,.17-2.98,.51-.94,.34-1.64,.68-2.11,1,.29,.9,.49,1.86,.6,2.87,.11,1.01,.16,2.1,.16,3.25v15.66h-6.56v-14.9Z"/>
        <path class="b" d="M232.89,23.52c0-2.49,.37-4.68,1.11-6.56,.74-1.88,1.72-3.44,2.95-4.69,1.23-1.25,2.64-2.19,4.23-2.82,1.59-.63,3.21-.95,4.88-.95,3.9,0,6.95,1.21,9.13,3.63,2.19,2.42,3.28,6.03,3.28,10.84,0,.36,0,.77-.03,1.22-.02,.45-.04,.86-.08,1.22h-18.7c.18,2.28,.98,4.04,2.41,5.28s3.5,1.87,6.21,1.87c1.59,0,3.04-.14,4.36-.43,1.32-.29,2.36-.6,3.12-.92l.87,5.37c-.36,.18-.86,.37-1.49,.57-.63,.2-1.36,.38-2.17,.54-.81,.16-1.69,.3-2.63,.41s-1.9,.16-2.87,.16c-2.49,0-4.66-.37-6.5-1.11s-3.36-1.77-4.55-3.09c-1.19-1.32-2.08-2.87-2.66-4.66-.58-1.79-.87-3.75-.87-5.88Zm19.02-2.93c0-.9-.13-1.76-.38-2.57s-.62-1.52-1.11-2.11c-.49-.6-1.08-1.07-1.79-1.41-.71-.34-1.54-.51-2.52-.51s-1.9,.19-2.66,.57-1.4,.88-1.92,1.49c-.52,.61-.93,1.32-1.22,2.11-.29,.79-.49,1.61-.6,2.44h12.2Z"/>
        <path class="b" d="M263.84,23.41c0-2.1,.33-4.06,.98-5.88,.65-1.82,1.58-3.41,2.79-4.74,1.21-1.34,2.68-2.38,4.42-3.14s3.69-1.14,5.85-1.14c2.67,0,5.2,.49,7.59,1.46l-1.41,5.37c-.76-.33-1.62-.6-2.58-.81s-1.98-.33-3.06-.33c-2.57,0-4.52,.8-5.85,2.41-1.34,1.61-2.01,3.88-2.01,6.8s.63,5.05,1.9,6.69c1.26,1.65,3.4,2.47,6.4,2.47,1.12,0,2.22-.11,3.31-.33s2.02-.49,2.82-.81l.92,5.42c-.72,.36-1.82,.69-3.28,.98-1.46,.29-2.97,.43-4.53,.43-2.42,0-4.53-.37-6.31-1.11-1.79-.74-3.27-1.77-4.44-3.09-1.17-1.32-2.05-2.89-2.63-4.72-.58-1.82-.87-3.8-.87-5.93Z"/>
    </g>
    <g>
        <path class="c" d="M99.52,66.12c-.99,0-2-.03-3.01-.09-1.01-.06-1.9-.19-2.66-.39v-18.24c.4-.07,.82-.14,1.27-.2,.45-.06,.91-.11,1.38-.15,.47-.04,.94-.06,1.4-.08,.46-.02,.9-.03,1.31-.03,1.14,0,2.2,.09,3.17,.26,.98,.17,1.82,.46,2.53,.85,.71,.4,1.27,.92,1.67,1.57s.6,1.46,.6,2.41c0,.89-.21,1.64-.64,2.28-.42,.63-1.02,1.14-1.77,1.52,1.14,.38,1.98,.94,2.52,1.68,.54,.74,.81,1.68,.81,2.82,0,1.93-.7,3.38-2.11,4.35-1.41,.97-3.57,1.45-6.48,1.45Zm-2.3-11.36h2.41c1.3,0,2.32-.18,3.06-.56,.74-.37,1.11-1.03,1.11-1.99,0-.9-.38-1.54-1.15-1.92-.77-.38-1.77-.57-2.99-.57-.52,0-.99,0-1.4,.03-.41,.02-.75,.04-1.04,.08v4.93Zm0,2.68v5.72c.38,.04,.79,.06,1.22,.08,.43,.02,.83,.03,1.19,.03,.7,0,1.36-.04,1.96-.14,.6-.09,1.13-.25,1.57-.47,.44-.23,.79-.53,1.06-.91,.26-.38,.39-.87,.39-1.46,0-1.07-.39-1.81-1.17-2.22s-1.85-.62-3.23-.62h-3.01Z"/>
        <path class="c" d="M124.76,47.13v2.95h-5.77v15.83h-3.44v-15.83h-5.77v-2.95h14.99Z"/>
        <path class="c" d="M133.38,65.91c-1.36-2.93-2.66-5.99-3.92-9.19s-2.43-6.4-3.51-9.59h3.77c.43,1.26,.88,2.56,1.33,3.88,.45,1.32,.91,2.62,1.36,3.89,.45,1.27,.91,2.51,1.36,3.7,.45,1.19,.9,2.29,1.33,3.28,.42-.99,.85-2.08,1.3-3.27s.91-2.42,1.37-3.7,.92-2.58,1.37-3.9c.45-1.32,.89-2.61,1.3-3.88h3.66c-1.11,3.2-2.29,6.4-3.54,9.59s-2.56,6.26-3.92,9.19h-3.28Z"/>
    </g>
    <rect class="b" y=".71" width="14.17" height="14.17"/>
    <polygon class="b" points="65.18 34.05 65.2 47.48 51.02 47.48 52.5 35.74 65.18 34.05"/>
    <polygon class="b" points="46.77 51.73 46.77 65.85 33.56 65.91 32.53 53.24 46.77 51.73"/>
    <polygon class="b" points="46.83 19.39 48.24 31.49 34.37 32.95 35.93 21.62 46.83 19.39"/>
    <polygon class="b" points="51.08 19.39 64.25 20.05 65.18 29.8 52.5 31.49 51.08 19.39"/>
    <polygon class="b" points="0 35.24 13.18 36.53 11.08 46.6 .74 48.96 0 35.24"/>
    <polygon class="b" points="48.24 35.74 46.77 47.48 32.53 48.99 34.37 37.2 48.24 35.74"/>
    <polygon class="b" points="17.43 36.53 30.12 37.2 28.28 48.99 15.33 46.6 17.43 36.53"/>
    <polygon class="b" points="11.08 50.85 13.43 64.63 0 65.91 .74 53.21 11.08 50.85"/>
    <polygon class="b" points="15.33 50.85 28.28 53.24 29.31 65.91 17.67 64.94 15.33 50.85"/>
    <rect class="c" x="51.02" y="51.73" width="14.17" height="14.17"/>
    <polygon class="b" points=".02 19.14 0 30.99 13.18 32.28 14.17 19.14 .02 19.14"/>
    <polygon class="b" points="18.43 .71 32.31 .71 31.68 17.37 18.43 14.88 18.43 .71"/>
    <polygon class="b" points="36.56 .71 50.65 2.99 46.83 15.14 35.93 17.37 36.56 .71"/>
    <polygon class="b" points="18.43 19.14 31.68 21.62 30.12 32.95 17.43 32.28 18.43 19.14"/>
    <polygon class="b" points="54.9 2.99 65.2 .71 64.25 15.8 51.08 15.14 54.9 2.99"/>
</svg>